<?xml version="1.0" encoding="utf-8"?>
<!-- Generated by Mocodo 4.2.12 -->
<svg width="777" height="254" viewBox="0 0 777 254" xmlns="http://www.w3.org/2000/svg">
<rect x="0" y="0" width="777" height="254" fill="#ffffff" stroke="none" stroke-width="0"/>

<!-- Association APPARTENIR -->
<g>
	<line x1="274" y1="60" x2="162" y2="60" stroke="#d6604d" stroke-width="2"/>
	<line x1="50" y1="60" x2="162" y2="60" stroke="#d6604d" stroke-width="2"/>
	<g>
		<path d="M187 35 a14 14 90 0 1 14 14 V60 h-78 V49 a14 14 90 0 1 14 -14" fill="#f4a582" stroke="#f4a582" stroke-width="0"/>
		<path d="M201 60 v11 a14 14 90 0 1 -14 14 H137 a14 14 90 0 1 -14 -14 V60 H78" fill="#fddbc7" stroke="#fddbc7" stroke-width="0"/>
		<rect x="123" y="35" width="78" height="50" fill="none" rx="14" stroke="#d6604d" stroke-width="2"/>
		<line x1="123" y1="60" x2="201" y2="60" stroke="#d6604d" stroke-width="1"/>
		<text x="130" y="52.75" fill="#000000" font-family="Verdana" font-size="12">Appartenir</text>
	</g>
	<text x="208" y="77" fill="#4d4d4d" font-family="Verdana" font-size="12">0,N</text>
	<text x="96" y="77" fill="#4d4d4d" font-family="Verdana" font-size="12">0,N</text>
</g>

<!-- Association CONTENIR -->
<g>
	<line x1="274" y1="60" x2="378" y2="60" stroke="#d6604d" stroke-width="2"/>
	<line x1="494" y1="60" x2="378" y2="60" stroke="#d6604d" stroke-width="2"/>
	<g>
		<path d="M397 35 a14 14 90 0 1 14 14 V60 h-66 V49 a14 14 90 0 1 14 -14" fill="#f4a582" stroke="#f4a582" stroke-width="0"/>
		<path d="M411 60 v11 a14 14 90 0 1 -14 14 H359 a14 14 90 0 1 -14 -14 V60 H66" fill="#fddbc7" stroke="#fddbc7" stroke-width="0"/>
		<rect x="345" y="35" width="66" height="50" fill="none" rx="14" stroke="#d6604d" stroke-width="2"/>
		<line x1="345" y1="60" x2="411" y2="60" stroke="#d6604d" stroke-width="1"/>
		<text x="352" y="52.75" fill="#000000" font-family="Verdana" font-size="12">Contenir</text>
	</g>
	<text x="318" y="77" fill="#4d4d4d" font-family="Verdana" font-size="12">0,N</text>
	<text x="420" y="77" fill="#4d4d4d" font-family="Verdana" font-size="12">1,1</text>
</g>

<!-- Association POSSEDER -->
<g>
	<line x1="722" y1="60" x2="609" y2="60" stroke="#d6604d" stroke-width="2"/>
	<line x1="494" y1="60" x2="609" y2="60" stroke="#d6604d" stroke-width="2"/>
	<g>
		<path d="M630 35 a14 14 90 0 1 14 14 V60 h-70 V49 a14 14 90 0 1 14 -14" fill="#f4a582" stroke="#f4a582" stroke-width="0"/>
		<path d="M644 60 v11 a14 14 90 0 1 -14 14 H588 a14 14 90 0 1 -14 -14 V60 H70" fill="#fddbc7" stroke="#fddbc7" stroke-width="0"/>
		<rect x="574" y="35" width="70" height="50" fill="none" rx="14" stroke="#d6604d" stroke-width="2"/>
		<line x1="574" y1="60" x2="644" y2="60" stroke="#d6604d" stroke-width="1"/>
		<text x="582" y="52.75" fill="#000000" font-family="Verdana" font-size="12">Posséder</text>
	</g>
	<text x="650" y="77" fill="#4d4d4d" font-family="Verdana" font-size="12">1,1</text>
	<text x="547" y="77" fill="#4d4d4d" font-family="Verdana" font-size="12">0,N</text>
</g>

<!-- Association CREER -->
<g>
	<line x1="162" y1="186" x2="274" y2="186" stroke="#d6604d" stroke-width="2"/>
	<line x1="274" y1="60" x2="274" y2="186" stroke="#d6604d" stroke-width="2"/>
	<g>
		<path d="M288 161 a14 14 90 0 1 14 14 V186 h-56 V175 a14 14 90 0 1 14 -14" fill="#f4a582" stroke="#f4a582" stroke-width="0"/>
		<path d="M302 186 v11 a14 14 90 0 1 -14 14 H260 a14 14 90 0 1 -14 -14 V186 H56" fill="#fddbc7" stroke="#fddbc7" stroke-width="0"/>
		<rect x="246" y="161" width="56" height="50" fill="none" rx="14" stroke="#d6604d" stroke-width="2"/>
		<line x1="246" y1="186" x2="302" y2="186" stroke="#d6604d" stroke-width="1"/>
		<text x="254" y="178.75" fill="#000000" font-family="Verdana" font-size="12">CREER</text>
	</g>
	<text x="219" y="203" fill="#4d4d4d" font-family="Verdana" font-size="12">0,N</text>
	<text x="279" y="119" fill="#4d4d4d" font-family="Verdana" font-size="12">1,1</text>
</g>

<!-- Association DETERMINER -->
<g>
	<line x1="494" y1="60" x2="494" y2="186" stroke="#d6604d" stroke-width="2"/>
	<line x1="378" y1="186" x2="494" y2="186" stroke="#d6604d" stroke-width="2"/>
	<g>
		<path d="M522 161 a14 14 90 0 1 14 14 V186 h-84 V175 a14 14 90 0 1 14 -14" fill="#f4a582" stroke="#f4a582" stroke-width="0"/>
		<path d="M536 186 v11 a14 14 90 0 1 -14 14 H466 a14 14 90 0 1 -14 -14 V186 H84" fill="#fddbc7" stroke="#fddbc7" stroke-width="0"/>
		<rect x="452" y="161" width="84" height="50" fill="none" rx="14" stroke="#d6604d" stroke-width="2"/>
		<line x1="452" y1="186" x2="536" y2="186" stroke="#d6604d" stroke-width="1"/>
		<text x="460" y="178.75" fill="#000000" font-family="Verdana" font-size="12">Déterminer</text>
	</g>
	<text x="499" y="128" fill="#4d4d4d" font-family="Verdana" font-size="12">1,1</text>
	<text x="425" y="203" fill="#4d4d4d" font-family="Verdana" font-size="12">0,N</text>
</g>

<!-- Entity THEME -->
<g>
	<g>
		<rect x="9" y="26" width="82" height="25" fill="#bababa" stroke="none" stroke-width="0" opacity="1"/>
		<rect x="9" y="51" width="82" height="43" fill="#e0e0e0" stroke="none" stroke-width="0" opacity="1"/>
		<rect x="9" y="26" width="82" height="68" fill="none" stroke="#878787" stroke-width="2" opacity="1"/>
		<line x1="9" y1="51" x2="91" y2="51" stroke="#878787" stroke-width="1"/>
	</g>
	<text x="29" y="43.75" fill="#000000" font-family="Verdana" font-size="12">THEME</text>
	<text x="14" y="68.8" fill="#000000" font-family="Verdana" font-size="12">code theme</text>
	<line x1="14" y1="71" x2="86" y2="71" stroke="#000000" stroke-width="1"/>
	<text x="14" y="85.8" fill="#000000" font-family="Verdana" font-size="12">nom</text>
</g>

<!-- Entity QUIZ -->
<g>
	<g>
		<rect x="235" y="18" width="78" height="25" fill="#bababa" stroke="none" stroke-width="0" opacity="1"/>
		<rect x="235" y="43" width="78" height="59" fill="#e0e0e0" stroke="none" stroke-width="0" opacity="1"/>
		<rect x="235" y="18" width="78" height="84" fill="none" stroke="#878787" stroke-width="2" opacity="1"/>
		<line x1="235" y1="43" x2="313" y2="43" stroke="#878787" stroke-width="1"/>
	</g>
	<text x="258" y="35.75" fill="#000000" font-family="Verdana" font-size="12">QUIZ</text>
	<text x="240" y="60.8" fill="#000000" font-family="Verdana" font-size="12">code quiz</text>
	<line x1="240" y1="63" x2="298" y2="63" stroke="#000000" stroke-width="1"/>
	<text x="240" y="77.8" fill="#000000" font-family="Verdana" font-size="12">titre</text>
	<text x="240" y="94.8" fill="#000000" font-family="Verdana" font-size="12">description</text>
</g>

<!-- Entity QUESTION -->
<g>
	<g>
		<rect x="446" y="9" width="96" height="25" fill="#bababa" stroke="none" stroke-width="0" opacity="1"/>
		<rect x="446" y="34" width="96" height="77" fill="#e0e0e0" stroke="none" stroke-width="0" opacity="1"/>
		<rect x="446" y="9" width="96" height="102" fill="none" stroke="#878787" stroke-width="2" opacity="1"/>
		<line x1="446" y1="34" x2="542" y2="34" stroke="#878787" stroke-width="1"/>
	</g>
	<text x="461" y="26.75" fill="#000000" font-family="Verdana" font-size="12">QUESTION</text>
	<text x="451" y="51.8" fill="#000000" font-family="Verdana" font-size="12">code question</text>
	<line x1="451" y1="54" x2="536" y2="54" stroke="#000000" stroke-width="1"/>
	<text x="451" y="68.8" fill="#000000" font-family="Verdana" font-size="12">titre</text>
	<text x="451" y="85.8" fill="#000000" font-family="Verdana" font-size="12">wiki</text>
	<text x="451" y="102.8" fill="#000000" font-family="Verdana" font-size="12">anecdote</text>
</g>

<!-- Entity REPONSE -->
<g>
	<g>
		<rect x="676" y="18" width="92" height="25" fill="#bababa" stroke="none" stroke-width="0" opacity="1"/>
		<rect x="676" y="43" width="92" height="59" fill="#e0e0e0" stroke="none" stroke-width="0" opacity="1"/>
		<rect x="676" y="18" width="92" height="84" fill="none" stroke="#878787" stroke-width="2" opacity="1"/>
		<line x1="676" y1="43" x2="768" y2="43" stroke="#878787" stroke-width="1"/>
	</g>
	<text x="693" y="35.75" fill="#000000" font-family="Verdana" font-size="12">REPONSE</text>
	<text x="681" y="60.8" fill="#000000" font-family="Verdana" font-size="12">code réponse</text>
	<line x1="681" y1="63" x2="762" y2="63" stroke="#000000" stroke-width="1"/>
	<text x="681" y="77.8" fill="#000000" font-family="Verdana" font-size="12">description</text>
	<text x="681" y="94.8" fill="#000000" font-family="Verdana" font-size="12">est valide</text>
</g>

<!-- Entity UTILISATEUR -->
<g>
	<g>
		<rect x="110" y="127" width="104" height="25" fill="#bababa" stroke="none" stroke-width="0" opacity="1"/>
		<rect x="110" y="152" width="104" height="93" fill="#e0e0e0" stroke="none" stroke-width="0" opacity="1"/>
		<rect x="110" y="127" width="104" height="118" fill="none" stroke="#878787" stroke-width="2" opacity="1"/>
		<line x1="110" y1="152" x2="214" y2="152" stroke="#878787" stroke-width="1"/>
	</g>
	<text x="121" y="144.75" fill="#000000" font-family="Verdana" font-size="12">UTILISATEUR</text>
	<text x="115" y="169.8" fill="#000000" font-family="Verdana" font-size="12">code utilisateur</text>
	<line x1="115" y1="172" x2="209" y2="172" stroke="#000000" stroke-width="1"/>
	<text x="115" y="186.8" fill="#000000" font-family="Verdana" font-size="12">email</text>
	<text x="115" y="203.8" fill="#000000" font-family="Verdana" font-size="12">prénom</text>
	<text x="115" y="220.8" fill="#000000" font-family="Verdana" font-size="12">nom</text>
	<text x="115" y="237.8" fill="#000000" font-family="Verdana" font-size="12">mot de passe</text>
</g>

<!-- Entity NIVEAU -->
<g>
	<g>
		<rect x="336" y="152" width="84" height="25" fill="#bababa" stroke="none" stroke-width="0" opacity="1"/>
		<rect x="336" y="177" width="84" height="43" fill="#e0e0e0" stroke="none" stroke-width="0" opacity="1"/>
		<rect x="336" y="152" width="84" height="68" fill="none" stroke="#878787" stroke-width="2" opacity="1"/>
		<line x1="336" y1="177" x2="420" y2="177" stroke="#878787" stroke-width="1"/>
	</g>
	<text x="354" y="169.75" fill="#000000" font-family="Verdana" font-size="12">NIVEAU</text>
	<text x="341" y="194.8" fill="#000000" font-family="Verdana" font-size="12">code niveau</text>
	<line x1="341" y1="197" x2="414" y2="197" stroke="#000000" stroke-width="1"/>
	<text x="341" y="211.8" fill="#000000" font-family="Verdana" font-size="12">nom</text>
</g>
</svg>